<?xml version='1.0' encoding='utf-8'?>
<svg xmlns="http://www.w3.org/2000/svg" enable-background="new 0 0 1594.84 1109.84" version="1.1" viewBox="0 0 1594.8 1109.8"> <style type="text/css"> .st0{fill-rule:evenodd;clip-rule:evenodd;fill:#B48350;} .st1{fill-rule:evenodd;clip-rule:evenodd;fill:#704F32;} .st2{fill-rule:evenodd;clip-rule:evenodd;fill:#C3653E;} .st3{fill-rule:evenodd;clip-rule:evenodd;fill:#7F7F4E;} .st4{fill-rule:evenodd;clip-rule:evenodd;fill:#DD9245;} </style> <path class="st0" d="m1182.1 528.69c-214.45-68.84-553.43-52.92-765.42 11.01 60.57-349.36 179.75-487.13 385.46-490.09 204-2.93 335.91 146.23 379.96 479.08m-803.97 20.19c-79.48 19.8-81.07 93.28-27.53 121.15 25.09 115.03 49.12 247.06 108.3 356.1 23.02 42.42 85.95 68.76 134 73.42 165.7 16.08 336.31 14.43 490.09-12.85 41.46-7.35 85.31-42.46 102.79-80.76 49.86-109.21 59.96-225.16 89.94-341.41 53.84-29.98 45.28-111.36-47.73-128.49-26.31-367.73-206.4-539.47-436.86-535.99-228.93 3.46-381.79 228.22-413 548.83z"/> <path class="st1" d="m1048.2 971.26c-4.1 0.35-39.67 0.7-12.69-5.97 31.51-7.78 40.6-7.63 72.39-14.18 27.78-5.73 56.24-2.3 23.13 5.97-29.86 7.47-52.16 11.55-82.83 14.18m-693.05-303.32c161.84 58.36 638.95 76.48 915.97-1.81-5.19 14.27-6.98 14.41-23.17 18.87-65.12 17.93-142.82 31.55-226.24 40.3-4.73 41.9-9.07 80.86-13.39 119.59 46.71-3.86 91.72-9.44 133.57-17.5 4.16-25.8 8.34-51.56 13.04-76.28 6.42-5.76 3.84 25.26-3.17 74.32 20.59-4.21 40.37-9.05 59.14-14.62 0.54 2.79-16.42 13.96-21.07 16.32-8.27 4.2-21.94 8.16-40.04 11.83-2.81 18.86-6.14 39.87-9.78 62.14-9.84 37.86-12.04 41.25-11.94 7.46 4.18-21.96 7.94-44.76 11.65-67.67-33.44 6.08-79.23 11.29-132.65 15.34-5 44.87-10 89.77-15.56 138.89-3.23 30.1-16.17 51.99-11.94 17.91l18.18-156.11c-37.19 2.68-77.84 4.82-120.41 6.3-20.43 0.71-28.85-3.48-34.33-10.64 52.63-1.03 105.28-3.02 156.06-6.97l13.91-119.43c-69.98 7.03-143.78 10.65-217.38 10.55 1.82 44.35 1.27 79.26 3.38 124.8-1.57 43.02-6.89 34.09-13.43 8.21l-2.04-133.06c-77.21-0.53-153.96-5.18-225.62-14.3 3.49 38.42 8.47 77.06 14.48 115.85 44.44 6.13 90.27 11.02 135.57 14.35 17.69 5.48 10.73 9.71 0 11.94-47.88-1.4-90.87-4.32-132.96-9.77 5.75 35.52 12.3 71.15 19.28 106.84 66.42 10.46 128.67 15.12 191.52 15.87l-0.23-31.6c4.97-31.7 12.93-9.98 14.92 11.19-0.17 7.86-0.33 14.52-0.49 20.51 37.55 0.1 75.43-1.15 114.67-3.34 34.74-2.84 17.25 13.79-8.96 11.94-35.45 3.15-70.76 5.01-106.13 5.47-0.44 14.02-0.89 26.45-1.33 47.51-0.99 29.1-8.7 41.79-11.94 8.21l-0.41-55.62c-62.12 0.15-124.52-4.1-188.34-13.51 4.83 24.27 9.82 48.56 14.88 72.86-1.57 7.52-10.36 7.15-17.91-11.94-4.23-21.57-8.36-42.63-12.32-63.27-20.35-3.25-40.86-7.03-61.55-11.35-38.28-10.63-54.22-28.4-9.7-18.66 23.3 5.11 45.92 9.49 68.06 13.24-6.91-36.53-13.19-71.8-18.36-106.32-32.87-4.74-65.46-11.11-99.69-19.6-22.89-8.21-23.38-13.43-31.34-20.15 39.85 8.8 83.41 16.64 128.64 23.2-5.47-39.02-9.4-77.17-11.08-115.24-64.04-8.62-123.77-20.89-175.8-37.07-16.55-5.12-13.6-1.23-16.22-15.98z"/> <path class="st1" d="m586.88 443c-43.33-2.05-233.38 107.14-197.58 164.91 276.45 50.01 580.79 53.7 847.9-4.67 45.29-66.46-169.23-171.05-192.92-177.36-266.04 2.6-191.36 14.52-457.4 17.12"/> <path class="st2" d="m660.19 641.11c33.46-54.27 33.22-88.63 29.33-138.71-5.28-67.91-38.01-171.96-201.48-97.42-33.58 38.38-102.77 64.32-98.52 115.13 2.77 33.12 20.91 67.67 44.96 95.51 73.93 11.9 149.57 20.49 225.71 25.49m235.4 3.67c-6.31-67.47 26.86-186.57 76.97-228.95 30.98-26.2 67.82-17.9 130.99-5.31 36.53 24.36 73.06 48.71 109.59 73.06 43.01 24.54 10.16 77.39-43.89 133.04-88.62 15.6-180.58 24.82-273.66 28.16z"/> <path class="st2" d="m711.66 530.08c14.88 32.21 19.94 58.48 75.28 69.74 37.14 7.56 90.8-17.48 105.17-55.35 30.17-79.51 75.98-127.01 78.6-176.02 2.78-52.02-75.23-89.62-127.31-90.77-62.87-1.39-142.65-33.93-170.48 80.81-10.03 41.33 14.15 118.36 38.74 171.59"/> <path class="st1" d="m1032.3 524.38c4.12-6.72 21.91-8.6 16.03 11.12-4.28 14.35-12.92 17.42-16.43 16.12-3.86-1.44-6.02-16.76 0.4-27.24m-58-41.89c5.55-7.73 24.65-13.28 14.93 8.15-7.08 15.6-16.74 20.51-20.2 19.88-3.84-0.69-3.37-15.97 5.27-28.03zm-25.59 93.61c3.67-4.91 18.01-6.72 12.22 7.51-4.21 10.36-11.29 12.78-14.03 11.94-3.02-0.92-3.9-11.8 1.81-19.45zm-339.71-15.53c3.43 5.83 18.59 6.68 13.84-10.72-3.46-12.67-10.79-15.02-13.8-13.68-3.32 1.48-5.37 15.32-0.04 24.4zm-80.3 38.65c3.54 6.92 19.21 9.37 14.3-10.76-3.57-14.65-11.15-18.02-14.26-16.81-3.43 1.34-5.55 16.78-0.04 27.57zm-62.99-47.92c3.87 6.59 21.01 7.55 15.64-12.11-3.9-14.31-12.19-16.97-15.59-15.46-3.76 1.67-6.08 17.3-0.05 27.57zm72.85-45.77c3.97 6.96 19.79 9.42 13.64-10.82-4.47-14.73-12.26-18.12-15.29-16.9-3.36 1.35-4.53 16.87 1.65 27.72zm72.03-26.8c3.57 6.96 18.72 9.42 13.52-10.82-3.78-14.73-11.16-18.12-14.13-16.9-3.28 1.35-4.96 16.87 0.61 27.72zm140.89-170.54c0.22 4.83 10.43 10.98 13.59-1.39 2.3-9.01-1.93-13.16-4.51-13.47-2.86-0.34-9.42 7.34-9.08 14.86zm-37.47 73.7c1.89 5.73 17.08 9.93 16.99-5.92-0.06-11.54-6.88-15.22-10.3-14.77-3.78 0.48-9.64 11.75-6.69 20.69zm36.17 101.5c1.78 6.52 16.2 11.3 16.16-6.74-0.03-13.13-6.5-17.31-9.75-16.81-3.6 0.56-9.19 13.38-6.41 23.55zm51.66 48.17c1.41 5.28 12.84 9.14 12.8-5.45-0.02-10.62-5.15-14-7.73-13.6-2.84 0.46-7.28 10.83-5.07 19.05zm59.11-50.72c0.66 7.73 13.84 13.4 16.77-7.99 2.13-15.57-3.44-20.53-6.68-19.93-3.58 0.66-11.11 15.86-10.09 27.92zm-53.66-47.6c1.74 7.73 15.72 13.4 15.64-7.99-0.06-15.57-6.33-20.53-9.48-19.93-3.48 0.66-8.87 15.86-6.16 27.92zm68.49-68.12c2.61-6.68 18.73-15.19 16.8 1.93-1.4 12.46-8.84 18.21-12.32 18.63-3.84 0.47-8.56-10.15-4.48-20.56zm-77.73-0.41c1.74 6.86 15.72 11.88 15.64-7.09-0.06-13.81-6.33-18.21-9.48-17.68-3.48 0.59-8.88 14.08-6.16 24.77zm299.54 205.14c6.28-4.67 24.51-1.66 12.22 13.66-8.95 11.15-18.5 11.54-21.54 9.51-3.36-2.24-0.47-15.89 9.32-23.17z"/> <path class="st3" d="m533.25 360.99c10.7-9.03 22.94-22.52 35.61-28.49 33.6-15.83 34.35 5.95 22.13 28.19-36.24 66.01-150.86 122.89-224.43 120.61-30.13-0.93-37.92-19.17-0.29-38.69 15.75-8.17 33.95-10.33 50.92-15.5-0.96-27.24-21.11-38.17-34.32-52.39-30-32.3-1.51-37.49 18.82-32.86 32.59 7.44 60.01 20.56 76.38 47.6 3.69-23.62 4.86-47.77 11.07-70.85 8.14-30.22 35.76-37.62 43.17 1.11 2.52 13.15-0.53 27.99 0.94 41.27"/> <path class="st3" d="m1071.7 420.8c-7.9-15.32-23.17-32.81-30.89-45.97-21.39-36.48 13.42-32.18 31.61-20.83 29.1 18.16 41.9 36.63 52.43 61.77 20.35-17 39.68-29.16 61.77-43.82 17.76-11.79 28.3-12.47 15.8 19.39-8.96 22.83-15.32 33.52-26.58 55.31 23.94-1.44 41.65-1.08 64.64 5.75 34.46 10.22 20.84 40.32-17.24 41.66-21.72 0.76-38.79-10.29-58.18-20.11 5.03 13.65 3.92 27.28 4.31 40.94 0.83 29.14-27.28 34.91-43.1 10.06-12.65-19.89-8.14-46.45-12.21-69.67-20.35 2.39-37.74 8.12-56.74 11.49-23.04 4.09-37.18-5.26-18.68-33.04 5.01-7.49 17.74-12.69 33.06-12.93"/> <path class="st3" d="m839.17 284.94c-43.73-4.91-81.63 6.91-119.81-12.72-25.02-12.86-38.85-49.96 0.67-42.84 23.97 4.32 42.17 10.71 65.59 17.4-5.58-17.85-10.89-34.86-16.73-53.55-8.66-27.74 19.03-30.07 42.84-12.05 17.59 13.32 22.98 34.8 28.78 54.21 10.26-27.44 16.37-47.24 34.8-62.25 29.66-24.13 46.03-10.87 34.81 32.13-2.21 8.48-16.53 39.11-26.11 66.26 27.22-2.68 56.33-20.28 83.67-19.41 44.15 1.4 20.23 30.52 0 42.84-49.49 30.15-83.22-6.67-128.51-10.02"/> <path class="st4" d="m1506.6 921.24c39.62 17.63 92.87-8.21 65.25-55.36-11.09-18.93-42.93-32.71-65.73-39.58 35.9-23.43 65.73-41.77 83.1-73.17 22.25-40.21-26.61-78.08-68.56-59.56-30.33 13.39-46.69 48.48-61.84 72.2-0.37-28.99 1.1-62.08-17.68-85.12-31.33-38.45-74.03-10.24-78.35 29.45-6.36 58.44 66.02 176.53 143.81 211.14"/> <path class="st3" d="m1439 857.36c-6.84-25.03-36.37-50.71-45.64-22.05-4.82 14.91-7.23 30.53-4.61 48.15-20.49 32.74-44.42 74.05-79.7 104.09 9.7-44.17 21.78-98.68 14.62-142.74-3.99-24.58-27.55-48.8-44.79-3.33-24.19 63.76-31.28 135.62-15.33 207.99-8.07 8.34-9.68 6.84-10.2 18.22-0.51 11.23-0.83 9.72 14.68 11.32 76.52 7.9 144.3 24.8 208.56-1.93 41.67-17.33 32.74-44.34 5.98-54.85-60.74-23.85-126.13 9.91-189.19 14.86 48.47-51.72 91.53-101.88 112.57-145.62 21.82-10.32 39.67-9.91 33.05-34.11"/> <path class="st3" d="m390.94 1080.2c13.97 4.8 31.64 0.41 12.46-19.26-16.82-17.26-39.27-27.95-58.91-41.92-3.4-52.12 15.44-123.97-11.33-168.81-39.29-65.83-63.44-18.72-63.44 21.53 0 36.54 22.66 69.49 33.99 104.23-32.26-19.99-57.63-51-74.77-95.17-10.12-65.16-11.41-109.69-3.4-132.55-5.67 1.51-11.33 3.02-16.99 4.53-3 23.44-10.23 58.51 0 103.1-31.92-60.24-56.45-118.01-70.24-172.21-3.77 3.78-7.55 7.55-11.33 11.33 6.01 35.24 18.91 72.77 33.99 111.03-24.45-29.18-58.62-48.64-95.17-65.71 0.76 8.31 1.51 16.62 2.27 24.93 52.94 20.21 118.51 74.96 163.14 167.68-44.94-26.81-81.92-56.52-128.02-53.25-43.85 3.11-49.86 54.25 7.93 73.64 45.61 15.3 91.39-9.44 139.35 12.46 32.1 21.53 55.14 45.32 80.44 67.98-38.9-4.91-75.96-29.82-112.16-14.73-63.94 26.66-40.93 72.93 4.53 72.51 54.75-0.51 92.15-12.84 141.62-29.46 8.67 6.04 16.04 14.69 26.04 18.12"/> <path class="st2" d="m18.2 715.44c-15.11 7.1-25.43 33.66-11.94 52.88 9.71 13.84 39.24 28.04 56.13 23.02 36.55-10.85 30.22-38.66 18.13-57.78-11.88-18.78-42.21-27.57-62.32-18.12"/> <path class="st2" d="m249.53 703.39c-10.66-14.72-38.13-20.83-52.42-3.03-10.29 12.81-15.6 46.69-6.42 63.68 19.88 36.77 44.07 24.99 58.63 8.69 14.31-16 14.39-49.75 0.21-69.34"/> <path class="st2" d="m166.79 652.91c-6.12-16.32-32.01-32.02-52.11-22.83-14.48 6.61-30.59 32.59-26.68 50.21 8.48 38.13 36.7 37.76 56.61 29.92 19.56-7.7 30.33-35.6 22.18-57.3"/> </svg>